<?xml version="1.0" standalone="no"?><!DOCTYPE svg PUBLIC "-//W3C//DTD SVG 1.1//EN" "http://www.w3.org/Graphics/SVG/1.1/DTD/svg11.dtd"><svg t="1637113980385" class="icon" viewBox="0 0 1024 1024" version="1.1" xmlns="http://www.w3.org/2000/svg" p-id="3824" xmlns:xlink="http://www.w3.org/1999/xlink" width="200" height="200"><defs><style type="text/css"></style></defs><path d="M952.75 515.22a194.77 194.77 0 0 0-60.23-141.49 168.81 168.81 0 0 0 6.73-47.29c0-93.36-75.94-169.31-169.29-169.31-87.69 0-160 67-168.47 152.52a126.44 126.44 0 0 0-126.15 30.67 127.91 127.91 0 0 0-12.73 14.6c-4.34-69.48-20.05-134-45.34-184.9-33-66.41-79.11-103-129.79-103S150.69 103.6 117.68 170c-30 60.41-46.57 140.14-46.57 224.48S87.42 558.57 117.45 619c27 54.4 63.55 88.76 102.55 99.42V903h-60.28a27 27 0 1 0 0 54h663.74a27 27 0 1 0 0-54H766V711.09c104-4.97 186.75-90.92 186.75-195.87zM730 211.12a115.38 115.38 0 0 1 106.16 160.37l-8.09 19 16.29 12.76a141.37 141.37 0 0 1 54.54 111.92c0 78.36-63.75 142.11-142.11 142.11a141.22 141.22 0 0 1-44.3-7 164.48 164.48 0 0 0-62.83-206.06 127.29 127.29 0 0 0 0.76-13.87 125.93 125.93 0 0 0-34.47-86.65v-0.28A115.39 115.39 0 0 1 730 211.12zM451.24 453.9l0.4-24.74a72.39 72.39 0 1 1 141.82 21.7l-6.6 22.43 21.25 9.71a110.54 110.54 0 0 1-80.24 205.61l-12.17-4-10.77 6.91a128.24 128.24 0 1 1-108-230.25 26.81 26.81 0 0 0 11-2.94 128.17 128.17 0 0 1 18.68-2.73zM166 594.95c-26.39-53.09-40.92-124.28-40.92-200.45S139.65 247.14 166 194.05c23.07-46.41 52.75-73 81.43-73s58.37 26.62 81.43 73c26.39 53.09 40.92 124.28 40.92 200.45 0 6.42-0.11 12.85-0.32 19.26A182.24 182.24 0 0 0 271.39 662a53.51 53.51 0 0 1-23.92 6c-28.68 0-58.36-26.65-81.47-73.05z m108 123.38a107.61 107.61 0 0 0 27.62-11.42 181.51 181.51 0 0 0 133.87 58.85 179.31 179.31 0 0 0 47.51-6.32V903H274zM537 903V748.48c0-0.77 0.19-1.54 0.13-2.29a166.77 166.77 0 0 0 24.87 1.86 163.88 163.88 0 0 0 119.48-51.64 207.69 207.69 0 0 0 30.52 9.86V903z" p-id="3825" fill="#ffffff"></path></svg>