<?xml version="1.0" standalone="no"?><!DOCTYPE svg PUBLIC "-//W3C//DTD SVG 1.1//EN" "http://www.w3.org/Graphics/SVG/1.1/DTD/svg11.dtd"><svg t="1636873971549" class="icon" viewBox="0 0 1024 1024" version="1.1" xmlns="http://www.w3.org/2000/svg" p-id="14812" xmlns:xlink="http://www.w3.org/1999/xlink" width="200" height="200"><defs><style type="text/css"></style></defs><path d="M496.308251 4.986866c-50.431281 37.184119-92.960297 70.327598-130.425727 101.987804a25.573672 25.573672 0 0 0 0.102295 39.153291c6.700302 5.626208 13.37503 11.891757 19.794022 18.668781 16.750755 17.645834 29.614312 36.391335 36.110024 51.837833l1.432126 3.631461 0.9718 2.940972-0.255737-0.051147a76.030527 76.030527 0 0 1-7.03276-3.068841c-15.293056-7.467512-33.450363-21.405163-50.226692-39.07657a236.096139 236.096139 0 0 1-18.438617-21.916637 25.573672 25.573672 0 0 0-37.772313-3.708183 1682.261712 1682.261712 0 0 0-95.850123 94.059966 25.573672 25.573672 0 0 0 3.375725 38.02805 283.100548 283.100548 0 0 1 44.830647 42.759179c15.062893 17.645834 34.882488 29.793328 63.166969 41.429349l11.76389 4.603261c9.794716 3.682609 27.082519 9.973732 28.616938 10.536353l11.124548 4.296376c14.423551 5.728503 16.034692 7.237349 15.906824 7.595381-7.672102 19.512712-118.099217-8.004559-154.081374-50.175544-12.019626-14.06552-22.376963-28.540218-30.355948-42.298854a25.573672 25.573672 0 0 0-41.659512-3.631461c-47.950635 56.850273-87.206221 113.495956-117.690038 169.988197a25.573672 25.573672 0 0 0 17.978292 37.311987c26.852356 4.833424 64.522374 20.228774 102.192392 42.477869 20.714674 12.224215 44.626057 19.205828 74.419386 23.272042l9.129801 1.176389c4.910145 0.537047 9.05308 0.9718 13.86093 1.380978l44.626057 3.247856c16.316003 1.329831 25.650393 2.736383 32.93889 4.935719l2.122614 0.690489c6.751449 2.30163 7.262923 2.889825 7.288497 6.112108 0 2.097041-2.710809 5.242603-12.377657 9.436685-13.349457 5.77965-33.731673 9.436685-57.745351 10.178321-49.996529 1.585568-105.568118-9.411111-135.540462-27.108092-35.163799-20.791395-64.9827-44.370321-82.679681-64.70139a25.573672 25.573672 0 0 0-43.168358 7.595381C-2.148188 593.155746-7.288496 676.679359 10.740942 754.167584a25.573672 25.573672 0 0 0 30.892996 19.07796c24.550725-5.933092 72.066607-2.122615 122.574609 11.175694 20.637953 5.447192 42.963769 6.214402 68.358425 3.426872a461.374615 461.374615 0 0 0 44.370321-7.365217l28.437923-5.881945c19.180254-3.836051 26.775634-4.884571 34.856915-4.884571h1.892452c8.84849 0.153442 9.973732 0.818358 10.996679 4.168509 0.588194 1.994746-1.099668 5.626208-9.129801 12.224215-11.175695 9.129801-29.716607 18.157307-52.57947 25.394656-47.618177 15.062893-104.110418 19.538285-137.918812 10.638647-32.299548-8.516033-61.811565-19.768448-84.214102-31.864795-21.481884-11.584873-45.444415 10.638648-35.496256 32.93889 24.371709 54.59979 61.172223 100.939283 109.966789 135.642755 81.938045 58.256825 184.616337 88.791789 272.998947 42.298854 19.691727-10.357337 46.032609-45.725725 85.416065-111.424489l9.308816-15.702234 4.577687 7.723249 13.502899 22.402536c34.601178 56.517815 58.359119 87.385237 76.644295 97.000938 84.137381 44.242452 181.061597 18.771075 264.610783-36.570351l8.030133-5.472766c49.152597-34.959209 85.953111-81.324277 110.324821-135.898492 9.948158-22.300242-14.014372-44.498189-35.496257-32.93889-22.402537 12.096347-51.914554 23.348762-84.214102 31.864795-33.808394 8.899638-90.275062 4.424245-137.918812-10.638647-22.862863-7.237349-41.403775-16.264855-52.57947-25.394656-8.030133-6.598007-9.717995-10.229469-9.1298-12.224215 0.895079-2.966546 1.918025-3.836051 8.337017-4.091788l2.659661-0.076721c7.620954-0.127868 13.988799 0.511473 28.668087 3.299004l29.435296 6.009813c22.070079 4.603261 36.237893 7.160628 51.454228 8.822916 25.42023 2.78753 47.720472 2.02032 68.358425-3.426872 50.508002-13.298309 97.998311-17.108787 122.574609-11.175694a25.573672 25.573672 0 0 0 30.91857-19.07796c18.003865-77.488226 12.863557-161.037412-12.0452-225.610933a25.573672 25.573672 0 0 0-43.168358-7.595381c-17.696981 20.331069-47.515882 43.909995-82.679681 64.70139-29.972343 17.696981-85.543933 28.69366-135.540461 27.108093-24.039252-0.76721-44.395894-4.398672-57.745352-10.178322-9.666848-4.194082-12.403231-7.339644-12.377657-9.462259 0.025574-2.813104 0.434752-3.580314 5.038014-5.29375l2.250483-0.792783c7.620954-2.634088 17.13436-4.142935 35.03593-5.626208l44.651631-3.247857c3.836051-0.332458 7.262923-0.664915 10.996679-1.074094l2.864252-0.306884c34.115278-3.887198 60.737471-10.996679 83.549186-24.44843 37.670019-22.249095 75.340037-37.644445 102.192393-42.477869a25.573672 25.573672 0 0 0 17.978291-37.337561c-30.483817-56.466668-69.739403-113.112351-117.690038-169.962624a25.573672 25.573672 0 0 0-41.659512 3.631462 294.225095 294.225095 0 0 1-30.355948 42.298853c-35.982156 42.170985-146.383698 69.688256-154.081373 50.175544 0.588194-0.869505 3.529167-2.685236 15.906824-7.59538l44.242452-16.520592c32.222827-12.531099 54.11389-25.241214 70.429892-44.344747a283.100548 283.100548 0 0 1 44.830647-42.75918 25.573672 25.573672 0 0 0 3.375725-38.02805 1682.261712 1682.261712 0 0 0-95.850122-94.059965 25.573672 25.573672 0 0 0-37.772314 3.708182 236.096139 236.096139 0 0 1-18.438617 21.916637c-16.776329 17.671407-34.933636 31.609058-50.226692 39.102144l-3.682609 1.687863-1.713436 0.716063-1.918025 0.690489 1.022947-2.940973c0.409179-1.150815 0.895079-2.378351 1.406552-3.631461 6.495713-15.446498 19.35927-34.191999 36.110025-51.837833 6.418992-6.777023 13.09372-13.042573 19.794022-18.66878a25.573672 25.573672 0 0 0 0.127868-39.153292c-37.491003-31.660206-80.020019-64.803685-130.425727-101.987804a25.573672 25.573672 0 0 0-30.355948 0zM511.473438 57.38732l11.098974 8.311443c25.522525 19.180254 48.845713 37.286414 70.429892 54.676511l8.925212 7.288496-1.866878 1.918026c-47.797193 50.380134-71.631855 107.128112-40.457549 135.719476l2.966546 2.455073c31.19988 23.962531 84.62328-2.966546 130.681463-51.530949l4.398672-4.80785 13.042572 12.275362c10.613074 10.178321 20.944837 20.305495 30.969717 30.43267l10.485205 10.689795-0.920652 0.843931c-10.229469 9.462259-20.40779 19.998611-30.100212 31.378895-8.695048 10.178321-22.555979 18.617633-44.037863 27.44055l-10.689795 4.168509c-9.411111 3.529167-25.982851 9.53898-27.900876 10.280616-49.766366 18.694354-72.29677 38.744113-56.645683 78.511173 27.466124 69.688256 183.874701 30.688406 240.571532-35.72642l6.82817-8.209149 6.495713-8.28587 2.352778-3.196709 0.511473 0.639342a976.223778 976.223778 0 0 1 66.465973 94.16226l7.058334 11.712742-5.038014 1.713436c-25.113346 8.874064-52.707338 21.94221-80.045593 38.079197-13.912078 8.183575-31.711353 13.400604-55.239131 16.622887l-15.702234 1.841305c-4.142935 0.409179-8.464885 0.76721-14.295683 1.201962l-17.492392 1.201963c-77.820684 5.165882-106.309754 14.935024-106.795654 63.44828-0.4859 47.464735 49.357187 69.048914 119.633638 71.273823 58.972887 1.866878 123.878867-10.996679 163.160026-34.191999l9.05308-5.472766a477.84406 477.84406 0 0 0 49.024729-34.524457l5.447192-4.52654 1.304258 5.984239c7.569807 37.516577 8.822917 79.457399 2.966546 120.707732l-1.25311 7.978985-6.598008-0.306884c-32.171679-0.9718-72.680376 4.398672-114.57005 15.420925-13.809783 3.631461-30.074638 4.194082-49.766365 2.045893a380.280501 380.280501 0 0 1-33.833968-5.447192l-40.483123-8.311443c-20.791395-4.091788-29.051691-4.858998-41.659511-4.654408-29.102839 0.4859-50.814886 13.221588-59.075182 40.483122-13.809783 45.597857 28.20776 79.994446 95.21078 101.169446 56.159784 17.773702 122.139857 23.016305 166.407883 11.354711l11.891758-3.299004 9.922584-2.99212-3.810477 4.756703a270.492728 270.492728 0 0 1-50.942754 47.106704l-7.339644 5.01244c-69.176783 45.802446-149.196802 66.849578-212.21033 33.706099-8.234722-4.347524-34.089705-39.792633-69.943992-100.197646l-4.52654-7.646528a51.147344 51.147344 0 0 0-88.152447 0.051147l-11.917331 19.973038c-32.018237 52.886353-54.753232 83.728202-62.527628 87.819989-66.312531 34.882488-151.805316 9.462259-219.549973-38.718539l-8.081281-5.984239a270.211417 270.211417 0 0 1-42.861474-41.122465l-3.836051-4.756703 9.948159 2.99212 11.891757 3.299004c44.242452 11.636021 110.222526 6.418992 166.407883-11.354711 67.00302-21.175 109.020563-55.571589 95.210781-101.169446-8.260296-27.261534-29.972343-39.997223-59.075182-40.483122l-5.191456-0.025574c-13.37503 0.127868-24.243841 2.045894-57.745351 9.027506l-19.180254 3.963919c-13.630767 2.685236-23.655647 4.347524-33.859542 5.447192-19.691727 2.148188-35.982156 1.585568-49.766365-2.045893l-9.641274-2.429499c-38.411655-9.385538-75.237743-13.886504-104.928776-12.991426l-6.623581 0.306884-1.227536-7.978985a362.199915 362.199915 0 0 1 2.966546-120.707732l1.278683-5.984239 5.472766 4.552114c17.032065 13.758635 36.749367 27.363829 58.052235 39.971649 39.306734 23.19532 104.212713 36.058877 163.160027 34.191999 70.302024-2.224909 120.145111-23.809089 119.659211-71.273823-0.460326-45.572283-25.624819-56.952567-93.190461-62.450907l-40.252959-2.915399c-4.500966-0.409179-8.311443-0.76721-12.761263-1.278683-27.619566-3.171135-47.873914-8.56718-63.294838-17.671408l-9.1298-5.268176a455.390376 455.390376 0 0 0-70.941366-32.811021l-5.063587-1.713436 7.083907-11.712742a953.795667 953.795667 0 0 1 54.165037-78.383304l12.786836-16.418298 2.378351 3.196709c4.219656 5.549487 8.669475 11.047826 13.29831 16.495019 56.696831 66.414826 213.130982 105.414676 240.597105 35.72642 15.088466-38.360508-5.319324-58.359119-51.403081-76.516427l-37.772313-14.014372c-24.985477-9.717995-40.610991-18.771075-50.098823-29.870049l-7.339644-8.388164c-7.441939-8.183575-15.088466-15.906824-22.760568-23.016305l-0.946226-0.818357 10.485206-10.689795a1631.600268 1631.600268 0 0 1 30.99529-30.43267l13.016999-12.275362 4.398672 4.80785c47.56703 50.124397 102.959603 77.206915 133.673583 49.075876l2.761956-2.761956c26.903503-29.384149 3.068841-84.137381-43.219505-132.95752l-1.892452-1.918026 8.950785-7.288496a2446.479749 2446.479749 0 0 1 57.847646-45.163105L511.473438 57.38732z" fill="#d3d3d3" p-id="14813"></path></svg>